<?xml version="1.0" encoding="UTF-8" standalone="no"?>
<!-- Generator: Adobe Illustrator 16.0.0, SVG Export Plug-In . SVG Version: 6.00 Build 0)  -->

<svg
   xmlns:dc="http://purl.org/dc/elements/1.1/"
   xmlns:cc="http://creativecommons.org/ns#"
   xmlns:rdf="http://www.w3.org/1999/02/22-rdf-syntax-ns#"
   xmlns:svg="http://www.w3.org/2000/svg"
   xmlns="http://www.w3.org/2000/svg"
   xmlns:sodipodi="http://sodipodi.sourceforge.net/DTD/sodipodi-0.dtd"
   xmlns:inkscape="http://www.inkscape.org/namespaces/inkscape"
   version="1.1"
   id="Capa_1"
   x="0px"
   y="0px"
   width="460"
   height="460"
   viewBox="0 0 459.99999 460"
   xml:space="preserve"
   sodipodi:docname="linkedin-letters-invert.svg"
   inkscape:version="0.92.4 (5da689c313, 2019-01-14)"><metadata
   id="metadata47"><rdf:RDF><cc:Work
       rdf:about=""><dc:format>image/svg+xml</dc:format><dc:type
         rdf:resource="http://purl.org/dc/dcmitype/StillImage" /><dc:title></dc:title></cc:Work></rdf:RDF></metadata><defs
   id="defs45" /><sodipodi:namedview
   pagecolor="#ffffff"
   bordercolor="#666666"
   borderopacity="1"
   objecttolerance="10"
   gridtolerance="10"
   guidetolerance="10"
   inkscape:pageopacity="0"
   inkscape:pageshadow="2"
   inkscape:window-width="1920"
   inkscape:window-height="1027"
   id="namedview43"
   showgrid="false"
   inkscape:zoom="0.53815544"
   inkscape:cx="219.26801"
   inkscape:cy="219.2675"
   inkscape:window-x="-8"
   inkscape:window-y="-8"
   inkscape:window-maximized="1"
   inkscape:current-layer="layer2" />

<g
   id="g12"
   transform="translate(0,21.464996)">
</g>
<g
   id="g14"
   transform="translate(0,21.464996)">
</g>
<g
   id="g16"
   transform="translate(0,21.464996)">
</g>
<g
   id="g18"
   transform="translate(0,21.464996)">
</g>
<g
   id="g20"
   transform="translate(0,21.464996)">
</g>
<g
   id="g22"
   transform="translate(0,21.464996)">
</g>
<g
   id="g24"
   transform="translate(0,21.464996)">
</g>
<g
   id="g26"
   transform="translate(0,21.464996)">
</g>
<g
   id="g28"
   transform="translate(0,21.464996)">
</g>
<g
   id="g30"
   transform="translate(0,21.464996)">
</g>
<g
   id="g32"
   transform="translate(0,21.464996)">
</g>
<g
   id="g34"
   transform="translate(0,21.464996)">
</g>
<g
   id="g36"
   transform="translate(0,21.464996)">
</g>
<g
   id="g38"
   transform="translate(0,21.464996)">
</g>
<g
   id="g40"
   transform="translate(0,21.464996)">
</g>
<g
   inkscape:groupmode="layer"
   id="layer1"
   inkscape:label="base"
   transform="translate(0,21.464996)"><rect
     style="opacity:1;fill:#000000;fill-opacity:1;stroke:none;stroke-width:2.06229138;stroke-linecap:butt;stroke-linejoin:miter;stroke-miterlimit:4;stroke-dasharray:none;stroke-dashoffset:0;stroke-opacity:1;paint-order:fill markers stroke"
     id="rect861"
     width="457.93771"
     height="457.93771"
     x="1.0311432"
     y="-20.433853" /></g><g
   inkscape:groupmode="layer"
   id="layer2"
   inkscape:label="logo"
   transform="translate(0,21.464996)"><g
     id="g10"
     transform="matrix(0.79811008,0,0,0.79811008,54.999999,33.534604)"
     style="fill:#ffffff;fill-opacity:1">
	<g
   id="g8"
   style="fill:#ffffff;fill-opacity:1">
		<rect
   x="5.4239998"
   y="145.895"
   width="94.216003"
   height="282.93201"
   id="rect2"
   style="fill:#ffffff;fill-opacity:1" />
		<path
   d="m 408.842,171.739 c -19.791,-21.604 -45.967,-32.408 -78.512,-32.408 -11.991,0 -22.891,1.475 -32.695,4.427 -9.801,2.95 -18.079,7.089 -24.838,12.419 -6.755,5.33 -12.135,10.278 -16.129,14.844 -3.798,4.337 -7.512,9.389 -11.136,15.104 v -40.232 h -93.935 l 0.288,13.706 c 0.193,9.139 0.288,37.307 0.288,84.508 0,47.205 -0.19,108.777 -0.572,184.722 h 93.931 V 270.942 c 0,-9.705 1.041,-17.412 3.139,-23.127 4,-9.712 10.037,-17.843 18.131,-24.407 8.093,-6.572 18.13,-9.855 30.125,-9.855 16.364,0 28.407,5.662 36.117,16.987 7.707,11.324 11.561,26.98 11.561,46.966 V 428.82 h 93.931 V 266.664 c -0.007,-41.688 -9.897,-73.328 -29.694,-94.925 z"
   id="path4"
   inkscape:connector-curvature="0"
   style="fill:#ffffff;fill-opacity:1" />
		<path
   d="m 53.103,9.708 c -15.796,0 -28.595,4.619 -38.4,13.848 C 4.899,32.787 0,44.441 0,58.529 0,72.42 4.758,84.034 14.275,93.358 c 9.514,9.325 22.078,13.99 37.685,13.99 h 0.571 c 15.99,0 28.887,-4.661 38.688,-13.99 9.801,-9.324 14.606,-20.934 14.417,-34.829 C 105.446,44.442 100.589,32.787 91.075,23.556 81.562,14.323 68.9,9.708 53.103,9.708 Z"
   id="path6"
   inkscape:connector-curvature="0"
   style="fill:#ffffff;fill-opacity:1" />
	</g>
</g></g></svg>