<?xml version="1.0" encoding="UTF-8" standalone="no"?>
<!-- Generator: Adobe Illustrator 19.0.0, SVG Export Plug-In . SVG Version: 6.00 Build 0)  -->

<svg
   xmlns:dc="http://purl.org/dc/elements/1.1/"
   xmlns:cc="http://creativecommons.org/ns#"
   xmlns:rdf="http://www.w3.org/1999/02/22-rdf-syntax-ns#"
   xmlns:svg="http://www.w3.org/2000/svg"
   xmlns="http://www.w3.org/2000/svg"
   xmlns:sodipodi="http://sodipodi.sourceforge.net/DTD/sodipodi-0.dtd"
   xmlns:inkscape="http://www.inkscape.org/namespaces/inkscape"
   version="1.1"
   id="Capa_1"
   x="0px"
   y="0px"
   viewBox="0 0 460 460"
   xml:space="preserve"
   sodipodi:docname="twitter-invert.svg"
   width="460"
   height="460"
   inkscape:version="0.92.4 (5da689c313, 2019-01-14)"><metadata
   id="metadata43"><rdf:RDF><cc:Work
       rdf:about=""><dc:format>image/svg+xml</dc:format><dc:type
         rdf:resource="http://purl.org/dc/dcmitype/StillImage" /><dc:title></dc:title></cc:Work></rdf:RDF></metadata><defs
   id="defs41" /><sodipodi:namedview
   pagecolor="#ffffff"
   bordercolor="#666666"
   borderopacity="1"
   objecttolerance="10"
   gridtolerance="10"
   guidetolerance="10"
   inkscape:pageopacity="0"
   inkscape:pageshadow="2"
   inkscape:window-width="1920"
   inkscape:window-height="1027"
   id="namedview39"
   showgrid="false"
   inkscape:zoom="0.4609375"
   inkscape:cx="256"
   inkscape:cy="256"
   inkscape:window-x="-8"
   inkscape:window-y="-8"
   inkscape:window-maximized="1"
   inkscape:current-layer="layer1" />

<g
   id="g8"
   transform="translate(0,-52)">
</g>
<g
   id="g10"
   transform="translate(0,-52)">
</g>
<g
   id="g12"
   transform="translate(0,-52)">
</g>
<g
   id="g14"
   transform="translate(0,-52)">
</g>
<g
   id="g16"
   transform="translate(0,-52)">
</g>
<g
   id="g18"
   transform="translate(0,-52)">
</g>
<g
   id="g20"
   transform="translate(0,-52)">
</g>
<g
   id="g22"
   transform="translate(0,-52)">
</g>
<g
   id="g24"
   transform="translate(0,-52)">
</g>
<g
   id="g26"
   transform="translate(0,-52)">
</g>
<g
   id="g28"
   transform="translate(0,-52)">
</g>
<g
   id="g30"
   transform="translate(0,-52)">
</g>
<g
   id="g32"
   transform="translate(0,-52)">
</g>
<g
   id="g34"
   transform="translate(0,-52)">
</g>
<g
   id="g36"
   transform="translate(0,-52)">
</g>
<g
   inkscape:groupmode="layer"
   id="layer1"
   inkscape:label="base"><rect
     style="opacity:1;fill:#000000;fill-opacity:1;stroke:none;stroke-width:1.9916563;stroke-linecap:butt;stroke-linejoin:miter;stroke-miterlimit:4;stroke-dasharray:none;stroke-dashoffset:0;stroke-opacity:1;paint-order:fill markers stroke"
     id="rect855"
     width="458.00833"
     height="458.00833"
     x="0.99583435"
     y="0.99583435" /></g><g
   inkscape:groupmode="layer"
   id="layer2"
   inkscape:label="logo"><g
     id="g6"
     transform="matrix(0.703125,0,0,0.703125,50,50)"
     style="fill:#ffffff;fill-opacity:1">
	<g
   id="g4"
   style="fill:#ffffff;fill-opacity:1">
		<path
   d="m 512,97.248 c -19.04,8.352 -39.328,13.888 -60.48,16.576 21.76,-12.992 38.368,-33.408 46.176,-58.016 -20.288,12.096 -42.688,20.64 -66.56,25.408 C 411.872,60.704 384.416,48 354.464,48 296.352,48 249.568,95.168 249.568,152.992 c 0,8.32 0.704,16.32 2.432,23.936 C 164.736,172.672 87.52,130.848 35.648,67.136 26.592,82.848 21.28,100.832 21.28,120.192 c 0,36.352 18.72,68.576 46.624,87.232 -16.864,-0.32 -33.408,-5.216 -47.424,-12.928 0,0.32 0,0.736 0,1.152 0,51.008 36.384,93.376 84.096,103.136 -8.544,2.336 -17.856,3.456 -27.52,3.456 -6.72,0 -13.504,-0.384 -19.872,-1.792 13.6,41.568 52.192,72.128 98.08,73.12 -35.712,27.936 -81.056,44.768 -130.144,44.768 -8.608,0 -16.864,-0.384 -25.12,-1.44 C 46.496,446.88 101.6,464 161.024,464 c 193.152,0 298.752,-160 298.752,-298.688 0,-4.64 -0.16,-9.12 -0.384,-13.568 C 480.224,136.96 497.728,118.496 512,97.248 Z"
   id="path2"
   inkscape:connector-curvature="0"
   style="fill:#ffffff;fill-opacity:1" />
	</g>
</g></g></svg>